<?xml version="1.0" encoding="UTF-8"?>
<!DOCTYPE svg PUBLIC "-//W3C//DTD SVG 1.1//EN" "http://www.w3.org/Graphics/SVG/1.1/DTD/svg11.dtd">
<!-- Creator: CorelDRAW -->
<svg xmlns="http://www.w3.org/2000/svg" xml:space="preserve" width="259.223mm" height="267.723mm" version="1.1" style="shape-rendering:geometricPrecision; text-rendering:geometricPrecision; image-rendering:optimizeQuality; fill-rule:evenodd; clip-rule:evenodd"
viewBox="0 0 12833.76 13254.55"
 xmlns:xlink="http://www.w3.org/1999/xlink"
 xmlns:xodm="http://www.corel.com/coreldraw/odm/2003">
 <defs>
  <style type="text/css">
   <![CDATA[
    .fil1 {fill:#FEFEFE}
    .fil0 {fill:#9E6C41}
   ]]>
  </style>
 </defs>
 <g id="Layer_x0020_1">
  <metadata id="CorelCorpID_0Corel-Layer"/>
  <g id="_2191458601216">
   <path class="fil0" d="M2226.78 0c980.31,3855.03 4820.56,4833.26 3600.92,9432.76 1693.16,-2282.46 4709.59,-1782.46 7006.06,-3052.98 -623.01,934.68 -563.58,2055.17 -1705.42,2773.71 -30.75,19.26 -76.93,24.51 -95.31,57.34 -16.2,29 6.24,65.45 7.99,96.2 27.58,482.82 -157.8,692.82 -604.51,567.85 143.57,438.17 5.36,670.17 -558.33,590.72 117.31,419.13 11.71,671.05 -489.28,626.29 -536.23,803.46 -1443.44,653.21 -2582.75,-93.57 452.4,659.78 1166.35,1075.08 875.91,1864.75 -73.54,347.56 -301.05,434.34 -615.89,373.61 -342.75,-105.38 -782.23,145.44 -952.19,-239.77 -1270.41,-279.49 -749.73,-1628.04 -795.14,-2546.52 -2355.13,1327.76 -4703.25,2308.61 -4501.12,743.6 -609.22,-221.93 -243.49,-651.25 -391.44,-1056.7 -1634.29,-1994.65 1880.95,-1211.21 2974.73,-665.47 -2106.38,-1195.13 -3079.9,-2194.69 -2778.96,-2974.63 -91.05,-354.02 -418.26,-767.35 0,-1017.63 -135.15,-352.27 -412.46,-739.66 156.49,-1056.8 -13.02,-286.28 -333.88,-867.48 292.74,-865.84 -26.6,-1328.86 967.28,-2281.81 1155.51,-3556.93z"/>
   <path class="fil1" d="M2590.21 7638.78c-575.51,502.08 462.25,1065.67 1394.84,1625.09 -854.02,-715.26 -1461.6,-1309.7 -937.3,-1347.46 53.08,-69.49 53.3,-141.94 5.25,-217.12 -349.75,-186.58 -456.67,-343.73 49.14,-326.11 259.03,-110.31 90.39,-334.21 -177.18,-346.79 -267.56,-12.59 -535.9,199.72 -334.76,612.39z"/>
   <path class="fil1" d="M6174.5 12368.51c217.45,-56.69 443.43,-74.42 682.65,-28.89 -44.43,-43.34 -46.07,-93.9 -29,-147.96 59.97,-11.49 111.95,-6.24 153.75,18.71 -76.16,-200.7 -45.41,-353.8 10.18,-495.96 162.51,256.62 227.62,531.74 187.68,826.66 -499.89,71.35 -813.75,-2.73 -1005.26,-172.58z"/>
  </g>
 </g>
</svg>
