<?xml version="1.0" encoding="UTF-8"?>
<!DOCTYPE svg PUBLIC "-//W3C//DTD SVG 1.1//EN" "http://www.w3.org/Graphics/SVG/1.1/DTD/svg11.dtd">
<!-- Creator: CorelDRAW -->
<svg xmlns="http://www.w3.org/2000/svg" xml:space="preserve" width="291.402mm" height="129.681mm" version="1.1" style="shape-rendering:geometricPrecision; text-rendering:geometricPrecision; image-rendering:optimizeQuality; fill-rule:evenodd; clip-rule:evenodd"
viewBox="0 0 77530.01 34502.59"
 xmlns:xlink="http://www.w3.org/1999/xlink"
 xmlns:xodm="http://www.corel.com/coreldraw/odm/2003">
 <defs>
  <style type="text/css">
   <![CDATA[
    .fil3 {fill:#FEFEFE}
    .fil1 {fill:#9E6C41}
    .fil4 {fill:#727376;fill-rule:nonzero}
    .fil0 {fill:#606062;fill-rule:nonzero}
    .fil2 {fill:#9E6C41;fill-rule:nonzero}
   ]]>
  </style>
 </defs>
 <g id="Layer_x0020_1">
  <metadata id="CorelCorpID_0Corel-Layer"/>
  <path class="fil0" d="M46.93 34243.42l0 -592.54c201.14,124.99 370.46,211.62 508.54,261.8 138,49.41 271.51,74.18 401.75,74.18 130.9,0 229.85,-20.19 297.59,-59.89 67.1,-40.36 100.92,-99.61 100.92,-178.47 0,-63.8 -20.83,-115.18 -63.16,-153.6 -41.66,-39.14 -139.31,-85.3 -293.01,-138.75 -380.25,-133.51 -642.05,-270.18 -785.3,-409.6 -142.55,-139.31 -214.23,-317.11 -214.23,-533.31 0,-227.88 93.15,-412.76 279.36,-555.34 186.21,-142.69 428.49,-213.59 727.27,-213.59 151.07,0 303.47,18.22 455.86,55.31 152.37,37.09 303.47,91.18 451.93,162.08l0 548.37c-179.11,-90.54 -339.92,-157.61 -482.6,-200.61 -141.92,-43.63 -271.49,-65.13 -388.66,-65.13 -126.96,0 -224.05,18.22 -290.48,55.42 -66.97,37.09 -100.25,89.79 -100.25,158.17 0,55.98 30.01,108.76 89.87,157.64 59.25,49.41 149.79,95.65 270.21,140.61 25.41,10.46 64.47,24.74 116.61,43.63 254.59,94.45 436.87,175.17 547.6,242.27 115.84,70.9 203.11,162.75 262.47,274.78 59.22,111.9 88.46,242.8 88.46,392.57 0,246.88 -93.07,440.17 -279.25,581.52 -186.99,141.28 -445.41,211.62 -776.25,211.62 -165.36,0 -324.96,-21.47 -479.86,-64.47 -154.34,-43.63 -302.8,-108.1 -445.38,-194.7zm2395.59 212.26l0 -2668.4 668.02 0 0 1187.71 906.49 -1187.71 750.07 0 -945.44 1233.31 1179.86 1435.09 -867.32 0 -1023.66 -1254.12 0 1254.12 -668.02 0zm2718.58 0l0 -2668.4 687.55 0 0 2668.4 -687.55 0zm1886.38 -1676.73l0 1676.73 -660.28 0 0 -2668.4 585.33 0 1430.65 1590.79 0 -1590.79 660.28 0 0 2668.4 -522.94 0 -1493.04 -1676.73zm6805.29 1676.73l0 -2668.4 668.02 0 0 1070.46 1187.71 0 0 -1070.46 668.13 0 0 2668.4 -668.13 0 0 -1082.22 -1187.71 0 0 1082.22 -668.02 0zm3824.24 -976.73l787.93 0 -373.73 -1015.78 -414.2 1015.78zm-1117.34 976.73l1163.61 -2668.4 770.34 0 1039.25 2668.4 -707.85 0 -190.79 -519.66 -1149.96 0 -213.59 519.66 -711.01 0zm3176.95 0l0 -2668.4 687.57 0 0 2668.4 -687.57 0zm2230.77 -1574.51c123.82,0 215.56,-26.07 276.09,-77.45 60.55,-51.48 90.54,-129.6 90.54,-235.06 0,-100.25 -31.18,-177.17 -94.34,-229.85 -63.16,-52.79 -153.7,-78.86 -272.28,-78.86l-321.03 0 0 621.22 321.03 0zm-989.04 1574.51l0 -2668.4 985.24 0c361.92,0 629.63,63.16 802.86,188.85 172.57,125.66 259.17,321.03 259.17,585.33 0,147.16 -38.5,273.48 -114.64,378.31 -76.15,104.83 -192.76,193.4 -350.37,265.71 66.43,24.13 125.66,64.49 178.45,121.08 52.81,56.72 98.31,128.29 138.11,214.9l425.75 914.23 -753.32 0 -339.92 -769.01c-54.65,-122.41 -117.25,-206.41 -186.85,-251.98 -70.37,-46.27 -169.29,-69.07 -298.22,-69.07 -9.82,0 -23.47,0.67 -39.72,1.97 -17,1.3 -29.35,1.97 -38.5,1.97l0 1086.13 -668.02 0zm6801.46 0l0 -2668.4 668.02 0 0 2152.68 1148.65 0 0 515.73 -1816.67 0zm2894.98 -976.73l787.9 0 -373.73 -1015.78 -414.17 1015.78zm-1117.36 976.73l1163.61 -2668.4 770.34 0 1039.25 2668.4 -707.85 0 -190.79 -519.66 -1149.96 0 -213.59 519.66 -711.01 0zm3114.45 -212.26l0 -592.54c201.17,124.99 370.46,211.62 508.54,261.8 138,49.41 271.51,74.18 401.77,74.18 130.9,0 229.82,-20.19 297.56,-59.89 67.1,-40.36 100.92,-99.61 100.92,-178.47 0,-63.8 -20.83,-115.18 -63.16,-153.6 -41.66,-39.14 -139.31,-85.3 -292.98,-138.75 -380.28,-133.51 -642.08,-270.18 -785.3,-409.6 -142.58,-139.31 -214.26,-317.11 -214.26,-533.31 0,-227.88 93.17,-412.76 279.36,-555.34 186.21,-142.69 428.49,-213.59 727.27,-213.59 151.07,0 303.47,18.22 455.86,55.31 152.4,37.09 303.47,91.18 451.93,162.08l0 548.37c-179.11,-90.54 -339.89,-157.61 -482.58,-200.61 -141.92,-43.63 -271.51,-65.13 -388.66,-65.13 -126.99,0 -224.07,18.22 -290.51,55.42 -66.97,37.09 -100.25,89.79 -100.25,158.17 0,55.98 30.01,108.76 89.9,157.64 59.22,49.41 149.76,95.65 270.18,140.61 25.44,10.46 64.49,24.74 116.61,43.63 254.62,94.45 436.89,175.17 547.6,242.27 115.84,70.9 203.11,162.75 262.47,274.78 59.22,111.9 88.46,242.8 88.46,392.57 0,246.88 -93.04,440.17 -279.25,581.52 -186.96,141.28 -445.38,211.62 -776.25,211.62 -165.36,0 -324.94,-21.47 -479.84,-64.47 -154.37,-43.63 -302.83,-108.1 -445.41,-194.7zm2376.06 212.26l0 -2668.4 1785.49 0 0 492.21 -1117.44 0 0 543.1 1066.6 0 0 496.23 -1066.6 0 0 636.84 1148.65 0 0 500.03 -1816.7 0zm3247.85 -1574.51c123.82,0 215.56,-26.07 276.09,-77.45 60.55,-51.48 90.54,-129.6 90.54,-235.06 0,-100.25 -31.18,-177.17 -94.34,-229.85 -63.16,-52.79 -153.7,-78.86 -272.28,-78.86l-321.03 0 0 621.22 321.03 0zm-989.04 1574.51l0 -2668.4 985.24 0c361.95,0 629.63,63.16 802.86,188.85 172.57,125.66 259.17,321.03 259.17,585.33 0,147.16 -38.5,273.48 -114.64,378.31 -76.12,104.83 -192.73,193.4 -350.37,265.71 66.43,24.13 125.66,64.49 178.47,121.08 52.79,56.72 98.28,128.29 138.08,214.9l425.77 914.23 -753.34 0 -339.92 -769.01c-54.65,-122.41 -117.25,-206.41 -186.85,-251.98 -70.35,-46.27 -169.29,-69.07 -298.22,-69.07 -9.82,0 -23.47,0.67 -39.72,1.97 -17,1.3 -29.32,1.97 -38.5,1.97l0 1086.13 -668.02 0zm7578.91 -976.73l787.9 0 -373.71 -1015.78 -414.2 1015.78zm-1117.34 976.73l1163.58 -2668.4 770.34 0 1039.25 2668.4 -707.85 0 -190.79 -519.66 -1149.96 0 -213.59 519.66 -710.99 0zm3157.42 0l0 -2668.4 1785.49 0 0 492.21 -1117.47 0 0 543.1 1066.63 0 0 496.23 -1066.63 0 0 636.84 1148.65 0 0 500.03 -1816.67 0zm2200.22 -212.26l0 -592.54c201.14,124.99 370.43,211.62 508.54,261.8 137.98,49.41 271.51,74.18 401.75,74.18 130.9,0 229.85,-20.19 297.59,-59.89 67.07,-40.36 100.89,-99.61 100.89,-178.47 0,-63.8 -20.83,-115.18 -63.14,-153.6 -41.69,-39.14 -139.31,-85.3 -293.01,-138.75 -380.28,-133.51 -642.08,-270.18 -785.3,-409.6 -142.58,-139.31 -214.23,-317.11 -214.23,-533.31 0,-227.88 93.15,-412.76 279.36,-555.34 186.19,-142.69 428.49,-213.59 727.24,-213.59 151.09,0 303.49,18.22 455.86,55.31 152.4,37.09 303.47,91.18 451.95,162.08l0 548.37c-179.14,-90.54 -339.92,-157.61 -482.6,-200.61 -141.92,-43.63 -271.51,-65.13 -388.66,-65.13 -126.96,0 -224.05,18.22 -290.48,55.42 -66.99,37.09 -100.25,89.79 -100.25,158.17 0,55.98 29.98,108.76 89.87,157.64 59.22,49.41 149.76,95.65 270.21,140.61 25.41,10.46 64.47,24.74 116.61,43.63 254.59,94.45 436.87,175.17 547.6,242.27 115.84,70.9 203.11,162.75 262.44,274.78 59.25,111.9 88.46,242.8 88.46,392.57 0,246.88 -93.04,440.17 -279.25,581.52 -186.96,141.28 -445.38,211.62 -776.22,211.62 -165.38,0 -324.96,-21.47 -479.86,-64.47 -154.34,-43.63 -302.83,-108.1 -445.38,-194.7zm3024.55 212.26l0 -2172.29 -882.91 0 0 -496.12 2469.1 0 0 496.12 -882.91 0 0 2172.29 -703.27 0zm1875.36 0l0 -2668.4 668.05 0 0 1070.46 1187.68 0 0 -1070.46 668.15 0 0 2668.4 -668.15 0 0 -1082.22 -1187.68 0 0 1082.22 -668.05 0zm3046.82 0l0 -2668.4 1785.49 0 0 492.21 -1117.47 0 0 543.1 1066.63 0 0 496.23 -1066.63 0 0 636.84 1148.65 0 0 500.03 -1816.67 0zm2891.71 0l0 -2172.29 -882.94 0 0 -496.12 2469.13 0 0 496.12 -882.94 0 0 2172.29 -703.25 0zm1894.89 0l0 -2668.4 687.55 0 0 2668.4 -687.55 0zm3562.44 -223.94c-160.25,91.74 -324.3,159.48 -492.29,204.44 -167.99,44.27 -344.49,66.41 -528.74,66.41 -208.35,0 -400.44,-31.95 -574.98,-95.12 -175.17,-63.8 -328.24,-157.51 -459.14,-280.66 -134.71,-128.19 -237.59,-278.59 -307.94,-449.85 -71.01,-171.93 -106.13,-356.28 -106.13,-553.51 0,-414.84 137.98,-748.85 414.73,-1002.8 276.75,-253.29 642.05,-380.28 1095.95,-380.28 162.77,0 321.69,17.59 475.95,53.34 155.01,35.89 308.04,90.54 459.14,164.18l0 626.35c-147.16,-95.67 -295.62,-167.32 -444.08,-214.23 -149.13,-47.57 -297.59,-70.9 -446.71,-70.9 -269.01,0 -481.27,72.85 -635.51,219.37 -154.37,146.49 -231.82,347.74 -231.82,604.96 0,249.38 73.51,448.68 221.33,597.14 147.16,149.1 345.8,223.28 595.15,223.28 160.25,0 321.05,-28.02 482.5,-84.63 161.55,-56.62 322.33,-140.61 482.58,-251.35l0 623.85zm352.23 11.68l0 -592.54c201.14,124.99 370.46,211.62 508.54,261.8 138,49.41 271.51,74.18 401.75,74.18 130.9,0 229.85,-20.19 297.59,-59.89 67.1,-40.36 100.92,-99.61 100.92,-178.47 0,-63.8 -20.83,-115.18 -63.16,-153.6 -41.66,-39.14 -139.31,-85.3 -293.01,-138.75 -380.25,-133.51 -642.05,-270.18 -785.3,-409.6 -142.55,-139.31 -214.23,-317.11 -214.23,-533.31 0,-227.88 93.15,-412.76 279.36,-555.34 186.21,-142.69 428.49,-213.59 727.27,-213.59 151.07,0 303.47,18.22 455.86,55.31 152.37,37.09 303.47,91.18 451.93,162.08l0 548.37c-179.11,-90.54 -339.92,-157.61 -482.6,-200.61 -141.92,-43.63 -271.49,-65.13 -388.66,-65.13 -126.96,0 -224.05,18.22 -290.48,55.42 -66.99,37.09 -100.25,89.79 -100.25,158.17 0,55.98 29.98,108.76 89.87,157.64 59.25,49.41 149.79,95.65 270.21,140.61 25.41,10.46 64.47,24.74 116.61,43.63 254.59,94.45 436.87,175.17 547.6,242.27 115.84,70.9 203.11,162.75 262.44,274.78 59.25,111.9 88.49,242.8 88.49,392.57 0,246.88 -93.07,440.17 -279.25,581.52 -186.99,141.28 -445.41,211.62 -776.25,211.62 -165.38,0 -324.96,-21.47 -479.86,-64.47 -154.34,-43.63 -302.8,-108.1 -445.38,-194.7z"/>
  <path class="fil1" d="M11234.12 32370.56c414.63,0 750.71,336.08 750.71,750.71 0,414.63 -336.08,750.71 -750.71,750.71 -414.52,0 -750.74,-336.08 -750.74,-750.71 0,-414.63 336.22,-750.71 750.74,-750.71z"/>
  <path class="fil1" d="M25078.57 32370.56c414.63,0 750.71,336.08 750.71,750.71 0,414.63 -336.08,750.71 -750.71,750.71 -414.63,0 -750.71,-336.08 -750.71,-750.71 0,-414.63 336.08,-750.71 750.71,-750.71z"/>
  <path class="fil1" d="M41546.27 32370.56c414.63,0 750.71,336.08 750.71,750.71 0,414.63 -336.08,750.71 -750.71,750.71 -414.63,0 -750.71,-336.08 -750.71,-750.71 0,-414.63 336.08,-750.71 750.71,-750.71z"/>
  <g id="_2227642051888">
   <path class="fil2" d="M6168.59 26196.44c0,29.35 -1.62,54.65 -4.79,75.91 -3.17,21.39 -7.85,38.74 -15.06,52.25 -7.08,12.66 -14.95,22.91 -25.2,28.47 -10.35,6.33 -21.39,9.5 -33.26,9.5l-842.13 0 0 2601.3c0,12.66 -3.17,22.91 -9.5,32.41 -6.33,9.5 -16.58,16.68 -32.41,22.14 -14.93,5.59 -35.55,10.27 -60.87,14.31 -26.05,3.91 -57.68,5.45 -96.42,5.45 -37.19,0 -68.83,-1.54 -94.9,-5.45 -26.07,-4.04 -47.44,-8.73 -62.5,-14.31 -15.83,-5.45 -26.07,-12.64 -32.41,-22.14 -6.33,-9.5 -9.5,-19.74 -9.5,-32.41l0 -2601.3 -841.99 0c-11.89,0 -23.04,-3.17 -33.28,-9.5 -10.24,-5.56 -18.22,-15.8 -24.53,-28.47 -5.45,-13.52 -11.04,-30.86 -14.95,-52.25 -4.04,-21.26 -5.56,-46.56 -5.56,-75.91 0,-29.24 1.52,-55.31 5.56,-77.45 3.91,-22.16 9.5,-40.36 14.95,-53.8 6.31,-14.18 14.29,-24.53 24.53,-29.98 10.24,-6.33 21.39,-9.5 33.28,-9.5l2082.62 0c11.87,0 22.91,3.17 33.26,9.5 10.24,5.45 18.12,15.8 25.2,29.98 7.21,13.44 11.89,31.63 15.06,53.8 3.17,22.14 4.79,48.21 4.79,77.45zm2462.69 2769.85c0,12.64 -3.17,22.91 -9.5,31.63 -6.33,7.85 -15.8,15.8 -29.98,22.14 -14.18,5.45 -33.18,10.24 -58.48,13.41 -24.56,3.17 -55.42,4.71 -92.51,4.71 -39.59,0 -71.22,-1.54 -95.78,-4.71 -25.2,-3.17 -44.17,-7.96 -58.45,-13.41 -14.18,-6.33 -23.68,-14.29 -30.01,-22.14 -6.33,-8.73 -9.47,-19 -9.47,-31.63l0 -1221.63c0,-118.58 -9.5,-215.11 -27.72,-287 -18.22,-72.77 -45.04,-135.26 -80.62,-188.18 -35.65,-52.25 -80.72,-92.51 -136.78,-120.21 -56.19,-27.7 -120.98,-41.88 -194.59,-41.88 -95.67,0 -190.47,33.92 -285.37,101.98 -95.67,67.95 -195.37,167.56 -299.66,298.89l0 1458.03c0,12.64 -3.17,22.91 -9.47,31.63 -6.33,7.85 -15.83,15.8 -30.12,22.14 -14.18,5.45 -33.15,10.24 -58.48,13.41 -24.53,3.17 -56.16,4.71 -94.9,4.71 -37.94,0 -68.83,-1.54 -93.25,-4.71 -25.3,-3.17 -45.18,-7.96 -59.36,-13.41 -15.03,-6.33 -25.3,-14.29 -30.86,-22.14 -5.45,-8.73 -7.85,-19 -7.85,-31.63l0 -3094.07c0,-12.53 2.39,-23.65 7.85,-32.38 5.56,-9.5 15.83,-17.35 30.86,-23.68 14.18,-5.56 34.06,-10.24 59.36,-13.41 24.42,-3.17 55.31,-4.82 93.25,-4.82 38.74,0 70.37,1.65 94.9,4.82 25.33,3.17 44.3,7.85 58.48,13.41 14.29,6.33 23.79,14.18 30.12,23.68 6.31,8.73 9.47,19.85 9.47,32.38l0 1246.19c109.08,-116.19 219.82,-202.47 330.42,-258.53 110.73,-56.19 222.21,-84.66 334.57,-84.66 139.07,0 255.36,23.79 350.27,70.37 94.8,47.44 171.58,110.71 230.06,189.03 58.45,79.07 100.46,171.58 125.66,277.5 25.3,105.92 37.97,234.1 37.97,383.55l0 1270.61zm2752.05 -1133.83c0,60 -14.93,102.78 -45.04,128.83 -29.98,25.33 -64.79,37.97 -103.52,37.97l-1369.53 0c0,116.19 11.89,220.56 34.8,313.07 22.91,93.39 61.73,173.23 116.27,239.67 53.8,66.43 124.14,116.93 210.32,152.61 86.95,35.55 192.97,53.77 317.86,53.77 98.84,0 187.41,-7.96 264.12,-24.53 77.45,-15.83 144.63,-34.06 200.82,-53.8 56.16,-19.74 102.75,-37.97 139.18,-53.77 36.34,-16.58 63.27,-24.56 82.16,-24.56 11.12,0 20.59,2.42 29.32,7.98 7.88,5.56 14.95,13.41 19,24.42 4.68,10.38 8.62,25.3 11.01,44.3 2.39,19.85 3.17,42.76 3.17,70.45 0,19.74 -0.77,37.09 -2.39,52.15 -1.54,14.18 -3.17,27.72 -5.45,38.74 -2.42,11.89 -6.33,22.14 -11.89,31.63 -5.56,8.73 -11.89,17.45 -20.62,26.07 -8.62,8.73 -33.92,22.14 -75.06,41.11 -41.88,19.74 -95.67,37.97 -162.11,56.94 -66.41,18.22 -143.11,34.8 -230.03,48.98 -87.05,15.06 -179.56,22.16 -278.4,22.16 -171.58,0 -321.03,-23.68 -449.85,-71.89 -128.93,-47.46 -237.24,-118.58 -324.96,-212.71 -87.8,-94.9 -154.23,-212.71 -198.53,-355.08 -45.04,-141.46 -67.18,-306.74 -67.18,-495.67 0,-178.79 22.91,-340.02 69.57,-483.14 45.82,-142.34 113.02,-264.09 200.08,-363.78 86.92,-99.61 192.87,-175.52 316.24,-229.32 123.37,-52.89 261.67,-79.84 414.28,-79.84 163.73,0 302.93,26.07 417.58,79.1 115.42,52.25 209.55,123.37 283.83,211.94 73.54,88.57 128.08,192.87 162.88,313.07 34.77,119.43 52.12,247.51 52.12,383.55l0 69.57zm-384.19 -113.1c4.71,-200.82 -39.59,-358.99 -133.61,-473.66 -94.16,-114.64 -232.46,-171.58 -416.7,-171.58 -94.9,0 -177.91,17.45 -249.16,53.03 -71.12,35.55 -130.45,83.01 -178.66,142.34 -48.24,58.48 -85.43,127.31 -111.51,204.76 -26.05,78.33 -41.11,159.69 -44.27,245.12l1133.91 0zm7065.02 179.43c0,170.06 -22.14,326.59 -67.18,469.73 -44.3,142.34 -111.48,265.61 -200.08,369.24 -88.57,103.63 -200.05,184.25 -332.81,241.95 -133.61,57.71 -288.62,86.95 -464.14,86.95 -171.58,0 -321.03,-25.33 -448.33,-76.7 -127.31,-50.6 -233.33,-124.89 -317.89,-222.19 -84.63,-97.19 -147.9,-215.77 -189.81,-354.2 -41.88,-139.2 -62.39,-296.5 -62.39,-472.76 0,-170.06 22.16,-326.61 65.56,-468.95 44.3,-143.11 110.73,-266.51 199.3,-370.01 88.57,-103.63 199.2,-183.5 332.04,-241.18 132.87,-56.96 287.88,-85.43 464.94,-85.43 171.58,0 321.03,25.3 448.33,76.7 127.28,50.6 233.31,124.99 317.86,222.19 84.66,97.3 148.67,215.11 191.32,354.31 41.9,139.07 63.27,295.62 63.27,470.36zm-398.48 24.56c0,-113.02 -10.24,-219.82 -31.63,-320.28 -20.51,-100.36 -55.31,-188.16 -103.63,-264.09 -47.33,-75.83 -113.02,-135.93 -195.26,-179.46 -81.49,-44.27 -184.25,-66.41 -306.74,-66.41 -113.13,0 -210.32,19.74 -291.81,60.1 -81.47,40.36 -147.9,97.3 -200.82,170.81 -53,73.54 -91.74,160.46 -117.04,260.92 -26.07,100.36 -38.71,210.32 -38.71,328.9 0,114.64 10.24,222.21 31.63,322.57 20.49,100.46 55.29,188.26 104.37,263.32 48.98,74.39 114.64,134.39 196.03,177.91 82.24,44.3 184.99,66.43 307.62,66.43 111.48,0 207.9,-19.74 290.16,-60.1 82.24,-40.36 149.44,-96.45 202.44,-169.19 52.92,-72.77 91.76,-159.71 116.19,-260.18 24.53,-100.36 37.19,-211.06 37.19,-331.27zm4336.62 1042.95c0,12.64 -3.17,22.91 -9.5,31.63 -6.31,7.85 -15.8,15.8 -29.98,22.14 -13.52,5.45 -33.28,10.24 -57.81,13.41 -24.42,3.17 -55.31,4.71 -92.51,4.71 -38.71,0 -70.35,-1.54 -94.9,-4.71 -24.42,-3.17 -44.17,-7.96 -59.22,-13.41 -14.29,-6.33 -24.56,-14.29 -30.86,-22.14 -6.33,-8.73 -9.5,-19 -9.5,-31.63l0 -1267.45c0,-88.57 -7.85,-169.29 -22.91,-241.18 -15.83,-72.77 -40.36,-135.26 -74.28,-188.18 -34.03,-52.25 -76.7,-92.51 -128.93,-120.21 -52.15,-27.7 -113.9,-41.88 -185.02,-41.88 -87.8,0 -176.29,33.92 -264.09,101.98 -88.57,67.95 -186.64,167.56 -292.56,298.89l0 1458.03c0,12.64 -3.17,22.91 -9.5,31.63 -6.33,7.85 -16.58,15.8 -31.63,22.14 -14.18,5.45 -34.03,10.24 -59.33,13.41 -24.45,3.17 -55.31,4.71 -92.51,4.71 -36.32,0 -66.33,-1.54 -92.51,-4.71 -25.3,-3.17 -45.82,-7.96 -60.1,-13.41 -14.95,-6.33 -25.3,-14.29 -30.76,-22.14 -5.56,-8.73 -7.98,-19 -7.98,-31.63l0 -1267.45c0,-88.57 -8.59,-169.29 -25.3,-241.18 -17.35,-72.77 -42.65,-135.26 -76.68,-188.18 -33.92,-52.25 -76.68,-92.51 -128.05,-120.21 -52.15,-27.7 -113.13,-41.88 -184.25,-41.88 -87.83,0 -177.17,33.92 -266.51,101.98 -89.32,67.95 -186.53,167.56 -291.68,298.89l0 1458.03c0,12.64 -3.17,22.91 -9.5,31.63 -6.31,7.85 -15.8,15.8 -30.09,22.14 -14.18,5.45 -33.18,10.24 -58.48,13.41 -24.53,3.17 -56.16,4.71 -94.9,4.71 -37.97,0 -68.83,-1.54 -93.25,-4.71 -25.3,-3.17 -45.18,-7.96 -59.36,-13.41 -15.03,-6.33 -25.3,-14.29 -30.86,-22.14 -5.45,-8.73 -7.85,-19 -7.85,-31.63l0 -2085.9c0,-12.66 2.39,-22.91 7.08,-31.63 4.82,-7.88 13.44,-15.83 27.72,-22.91 14.18,-7.1 31.63,-11.89 53.77,-14.18 21.28,-2.42 50.6,-3.17 86.18,-3.17 33.92,0 62.39,0.74 84.53,3.17 23.04,2.29 40.36,7.08 53.03,14.18 11.89,7.08 21.39,15.03 26.85,22.91 4.79,8.73 7.96,18.97 7.96,31.63l0 275.98c117.04,-131.99 231.68,-228.54 342.42,-289.42 109.86,-60.85 222.08,-91.74 334.44,-91.74 86.95,0 164.4,10.27 233.23,30.12 68.83,20.51 129.7,48.21 181.85,84.53 53,36.45 98.07,79.84 134.39,130.47 37.19,49.86 68.06,106.02 93.39,168.41 69.57,-75.91 135.16,-139.95 197.65,-192.87 62.39,-53 122.49,-94.88 180.2,-128.16 57.81,-32.41 113.87,-56.06 168.41,-70.35 55.42,-14.95 109.96,-22.16 165.28,-22.16 134.49,0 246.74,23.79 337.6,70.37 90.99,47.44 164.5,110.71 221.44,189.03 56.19,79.07 95.67,171.58 120.23,277.5 23.65,105.92 35.55,217.42 35.55,335.23l0 1318.93zm2892.03 -1077c0,182.73 -19.74,346.35 -59.22,491.86 -38.84,144.66 -96.55,268.03 -173.23,369.26 -75.93,101.24 -170.84,179.43 -283.06,234.08 -112.25,54.54 -241.21,82.16 -385.84,82.16 -61.65,0 -118.58,-6.33 -170.84,-18.12 -52.89,-12.66 -103.52,-31.63 -154.13,-58.59 -49.86,-26.07 -99.69,-59.22 -148.67,-99.59 -49.86,-39.48 -102.01,-86.95 -157.29,-140.72l0 1044.46c0,12.66 -3.17,22.91 -9.5,32.41 -6.33,9.5 -15.83,17.45 -30.12,23.79 -14.18,5.45 -33.15,10.24 -58.45,13.41 -24.56,3.17 -56.19,4.71 -94.9,4.71 -37.97,0 -68.83,-1.54 -93.28,-4.71 -25.3,-3.17 -45.15,-7.96 -59.33,-13.41 -15.06,-6.33 -25.3,-14.29 -30.89,-23.79 -5.45,-9.5 -7.85,-19.74 -7.85,-32.41l0 -2913.71c0,-14.18 2.39,-25.33 7.1,-33.92 4.79,-7.98 14.29,-15.83 27.7,-21.39 14.18,-6.33 31.63,-11.12 53.77,-13.41 21.28,-2.42 48.24,-3.17 79.1,-3.17 32.41,0 59.22,0.74 80.62,3.17 20.51,2.29 37.97,7.08 52.15,12.64 14.29,6.33 23.76,14.18 29.21,22.16 5.59,8.59 7.98,19.74 7.98,33.92l0 279.12c63.27,-64.79 124.14,-120.95 182.6,-169.19 58.59,-47.44 117.81,-86.92 177.14,-118.56 59.36,-31.63 120.23,-56.19 182.62,-72 62.5,-16.58 128.16,-24.56 197.76,-24.56 150.99,0 279.04,29.24 385.84,87.83 105.92,59.22 192.87,139.18 260.15,241.18 67.21,101.98 116.19,220.56 147.05,355.72 30.76,135.26 45.82,278.38 45.82,429.34zm-398.48 44.3c0,-106.69 -7.96,-210.32 -24.56,-309.9 -15.8,-99.59 -44.27,-188.18 -83.01,-265.74 -39.48,-77.45 -92.51,-139.07 -158.92,-185.76 -66.43,-46.69 -149.44,-69.6 -248.29,-69.6 -49.75,0 -98.07,7.1 -146.28,22.16 -47.46,15.03 -96.45,37.94 -146.28,69.57 -48.98,31.63 -101.24,73.54 -154.9,125.69 -53.77,52.23 -111.58,116.27 -171.58,192.2l0 829.46c105.15,128.83 204.73,226.89 298.86,295.62 94.8,68.06 193.64,102.11 297.27,102.11 95.67,0 177.91,-23.01 246.64,-69.6 68.83,-46.69 124.25,-108.31 166.9,-185.89 42.65,-77.45 73.51,-163.63 94.13,-260.05 19.74,-95.78 30.01,-192.97 30.01,-290.27zm1637.24 1032.71c0,12.64 -3.17,22.91 -9.5,31.63 -6.33,7.85 -15.83,15.8 -30.12,22.14 -14.18,5.45 -33.15,10.24 -58.45,13.41 -24.56,3.17 -56.19,4.71 -94.9,4.71 -37.97,0 -68.83,-1.54 -93.28,-4.71 -25.3,-3.17 -45.15,-7.96 -59.33,-13.41 -15.06,-6.33 -25.3,-14.29 -30.86,-22.14 -5.45,-8.73 -7.88,-19 -7.88,-31.63l0 -3094.07c0,-12.53 2.42,-23.65 7.88,-32.38 5.56,-9.5 15.8,-17.35 30.86,-23.68 14.18,-5.56 34.03,-10.24 59.33,-13.41 24.45,-3.17 55.31,-4.82 93.28,-4.82 38.71,0 70.35,1.65 94.9,4.82 25.3,3.17 44.27,7.85 58.45,13.41 14.29,6.33 23.79,14.18 30.12,23.68 6.33,8.73 9.5,19.85 9.5,32.38l0 3094.07zm2757.51 -1133.83c0,60 -14.93,102.78 -45.04,128.83 -30.01,25.33 -64.79,37.97 -103.52,37.97l-1369.53 0c0,116.19 11.89,220.56 34.8,313.07 22.91,93.39 61.73,173.23 116.27,239.67 53.77,66.43 124.14,116.93 210.32,152.61 86.95,35.55 192.97,53.77 317.86,53.77 98.84,0 187.41,-7.96 264.09,-24.53 77.45,-15.83 144.66,-34.06 200.82,-53.8 56.19,-19.74 102.78,-37.97 139.2,-53.77 36.32,-16.58 63.27,-24.56 82.13,-24.56 11.15,0 20.62,2.42 29.35,7.98 7.85,5.56 14.95,13.41 19,24.42 4.68,10.38 8.62,25.3 11.01,44.3 2.39,19.85 3.17,42.76 3.17,70.45 0,19.74 -0.77,37.09 -2.42,52.15 -1.52,14.18 -3.14,27.72 -5.45,38.74 -2.39,11.89 -6.31,22.14 -11.87,31.63 -5.59,8.73 -11.89,17.45 -20.62,26.07 -8.62,8.73 -33.92,22.14 -75.06,41.11 -41.9,19.74 -95.67,37.97 -162.11,56.94 -66.43,18.22 -143.11,34.8 -230.06,48.98 -87.03,15.06 -179.54,22.16 -278.38,22.16 -171.58,0 -321.03,-23.68 -449.85,-71.89 -128.93,-47.46 -237.27,-118.58 -324.96,-212.71 -87.83,-94.9 -154.23,-212.71 -198.53,-355.08 -45.04,-141.46 -67.21,-306.74 -67.21,-495.67 0,-178.79 22.91,-340.02 69.6,-483.14 45.82,-142.34 113.02,-264.09 200.08,-363.78 86.92,-99.61 192.84,-175.52 316.21,-229.32 123.4,-52.89 261.69,-79.84 414.31,-79.84 163.73,0 302.93,26.07 417.58,79.1 115.42,52.25 209.55,123.37 283.83,211.94 73.54,88.57 128.08,192.87 162.85,313.07 34.8,119.43 52.15,247.51 52.15,383.55l0 69.57zm-384.19 -113.1c4.68,-200.82 -39.59,-358.99 -133.61,-473.66 -94.16,-114.64 -232.48,-171.58 -416.7,-171.58 -94.9,0 -177.91,17.45 -249.16,53.03 -71.12,35.55 -130.45,83.01 -178.68,142.34 -48.21,58.48 -85.4,127.31 -111.48,204.76 -26.07,78.33 -41.11,159.69 -44.27,245.12l1133.91 0zm2305.37 1091.93c0,45.04 -3.17,80.72 -9.47,106.77 -5.59,26.07 -15.06,45.82 -27.72,57.71 -11.89,12.66 -30.86,24.56 -55.31,34.8 -24.53,11.01 -53,19.74 -84.63,26.85 -31.63,7.08 -64.81,12.64 -100.36,17.45 -35.68,4.68 -70.48,7.08 -106.02,7.08 -108.34,0 -200.82,-14.29 -277.53,-42.65 -76.68,-28.47 -139.95,-72 -189.81,-129.7 -48.98,-57.71 -84.53,-131.22 -107.43,-219.79 -22.14,-88.57 -33.28,-192.97 -33.28,-313.18l0 -1216.07 -293.33 0c-22.91,0 -41.88,-12.66 -56.16,-37.19 -13.41,-24.42 -20.51,-64.79 -20.51,-120.98 0,-29.24 1.54,-53.77 5.56,-73.51 3.94,-20.51 9.5,-37.09 14.95,-50.63 6.33,-12.64 15.06,-22.14 24.53,-27.59 10.27,-5.56 21.39,-7.96 34.06,-7.96l290.91 0 0 -494.92c0,-11.12 2.42,-21.39 7.98,-30.12 5.45,-9.47 15.8,-17.32 30.76,-24.53 14.29,-7.1 34.03,-11.79 59.33,-14.95 24.56,-3.17 55.31,-4.79 93.28,-4.79 38.71,0 70.35,1.62 94.9,4.79 25.3,3.17 44.27,7.85 58.45,14.95 14.29,7.21 23.79,15.06 30.12,24.53 6.33,8.73 9.5,19 9.5,30.12l0 494.92 531.34 0c12.64,0 22.91,2.39 32.38,7.96 8.73,5.45 17.45,14.95 23.79,27.59 7.1,13.54 11.79,30.12 14.95,50.63 3.17,19.74 4.79,44.27 4.79,73.51 0,56.19 -7.08,96.55 -20.62,120.98 -14.18,24.53 -32.38,37.19 -55.29,37.19l-531.34 0 0 1159.99c0,143.14 21.36,251.45 63.27,324.22 41.88,73.51 117.81,109.83 226.89,109.83 34.77,0 66.41,-3.17 94.13,-10.24 27.59,-7.1 52.15,-14.29 73.51,-22.14 21.39,-7.98 39.48,-15.06 55.31,-22.16 15.06,-7.08 29.24,-10.24 41.13,-10.24 7.96,0 15.03,1.52 22.14,5.45 6.33,4.04 11.89,11.12 15.8,22.14 3.94,11.12 7.1,25.3 10.27,44.3 3.17,18.2 4.79,41.88 4.79,69.6zm2509.25 -978.83c0,60 -14.93,102.78 -45.04,128.83 -29.98,25.33 -64.79,37.97 -103.52,37.97l-1369.53 0c0,116.19 11.89,220.56 34.8,313.07 22.91,93.39 61.73,173.23 116.27,239.67 53.8,66.43 124.14,116.93 210.32,152.61 86.95,35.55 192.97,53.77 317.86,53.77 98.84,0 187.41,-7.96 264.09,-24.53 77.45,-15.83 144.66,-34.06 200.85,-53.8 56.16,-19.74 102.75,-37.97 139.18,-53.77 36.32,-16.58 63.27,-24.56 82.13,-24.56 11.15,0 20.62,2.42 29.35,7.98 7.88,5.56 14.95,13.41 19,24.42 4.68,10.38 8.62,25.3 11.01,44.3 2.39,19.85 3.17,42.76 3.17,70.45 0,19.74 -0.77,37.09 -2.39,52.15 -1.54,14.18 -3.17,27.72 -5.45,38.74 -2.42,11.89 -6.33,22.14 -11.89,31.63 -5.56,8.73 -11.89,17.45 -20.62,26.07 -8.62,8.73 -33.92,22.14 -75.06,41.11 -41.88,19.74 -95.67,37.97 -162.11,56.94 -66.43,18.22 -143.11,34.8 -230.06,48.98 -87.03,15.06 -179.54,22.16 -278.38,22.16 -171.58,0 -321.03,-23.68 -449.85,-71.89 -128.93,-47.46 -237.27,-118.58 -324.96,-212.71 -87.8,-94.9 -154.23,-212.71 -198.53,-355.08 -45.04,-141.46 -67.18,-306.74 -67.18,-495.67 0,-178.79 22.91,-340.02 69.57,-483.14 45.82,-142.34 113.02,-264.09 200.08,-363.78 86.92,-99.61 192.84,-175.52 316.24,-229.32 123.37,-52.89 261.67,-79.84 414.28,-79.84 163.73,0 302.93,26.07 417.58,79.1 115.42,52.25 209.55,123.37 283.83,211.94 73.54,88.57 128.08,192.87 162.88,313.07 34.77,119.43 52.12,247.51 52.12,383.55l0 69.57zm-384.19 -113.1c4.68,-200.82 -39.59,-358.99 -133.61,-473.66 -94.16,-114.64 -232.46,-171.58 -416.7,-171.58 -94.9,0 -177.91,17.45 -249.16,53.03 -71.12,35.55 -130.45,83.01 -178.66,142.34 -48.24,58.48 -85.43,127.31 -111.51,204.76 -26.07,78.33 -41.11,159.69 -44.27,245.12l1133.91 0zm6492.54 1244.51c0,12.66 -3.14,23.79 -9.47,32.41 -6.33,9.5 -16.58,17.45 -30.89,23.79 -14.93,5.45 -35.55,10.24 -61.62,13.41 -26.07,3.17 -59.33,4.71 -99.59,4.71 -41.13,0 -75.93,-0.77 -102.88,-3.17 -26.82,-2.29 -49.73,-6.33 -67.95,-11.79 -18.97,-5.56 -34.03,-13.41 -45.04,-22.91 -11.89,-10.38 -22.14,-22.14 -31.63,-36.45l-879.22 -1154.43 0 1156.85c0,12.64 -3.17,22.91 -9.5,31.63 -6.33,7.85 -15.8,15.8 -30.09,22.14 -14.18,5.45 -33.18,10.24 -58.48,13.41 -24.53,3.17 -56.16,4.71 -94.9,4.71 -37.97,0 -68.83,-1.54 -93.25,-4.71 -25.33,-3.17 -45.18,-7.96 -59.36,-13.41 -15.06,-6.33 -25.3,-14.29 -30.86,-22.14 -5.45,-8.73 -7.85,-19 -7.85,-31.63l0 -3094.07c0,-12.53 2.39,-23.65 7.85,-32.38 5.56,-9.5 15.8,-17.35 30.86,-23.68 14.18,-5.56 34.03,-10.24 59.36,-13.41 24.42,-3.17 55.29,-4.82 93.25,-4.82 38.74,0 70.37,1.65 94.9,4.82 25.3,3.17 44.3,7.85 58.48,13.41 14.29,6.33 23.76,14.18 30.09,23.68 6.33,8.73 9.5,19.85 9.5,32.38l0 1884.33 785.08 -866.68c12.64,-15.8 26.18,-28.47 39.59,-38.71 14.18,-9.5 30.76,-18.22 49.73,-25.3 19,-7.1 42.01,-11.89 68.08,-14.18 26.07,-2.42 57.71,-3.17 94.9,-3.17 38.71,0 71.12,0.74 97.19,3.17 26.07,2.29 47.44,6.31 63.27,11.76 15.8,5.59 27.7,12.66 34.8,20.62 7.08,8.73 10.24,19.74 10.24,34.06 0,18.09 -4.68,37.09 -14.95,55.29 -10.35,19 -26.15,40.36 -49.83,64.81l-751.16 755.95 846.07 1100.63c19.74,26.85 33.92,47.46 42.65,64.04 8.73,16.58 12.64,31.63 12.64,45.04zm1107.55 2.42c0,12.64 -3.17,22.91 -9.5,31.63 -6.33,7.85 -15.83,15.8 -30.12,22.14 -14.18,5.45 -33.15,10.24 -58.45,13.41 -24.56,3.17 -56.19,4.71 -94.9,4.71 -37.97,0 -68.83,-1.54 -93.28,-4.71 -25.3,-3.17 -45.15,-7.96 -59.33,-13.41 -15.06,-6.33 -25.3,-14.29 -30.86,-22.14 -5.45,-8.73 -7.88,-19 -7.88,-31.63l0 -2085.9c0,-11.01 2.42,-21.28 7.88,-30.01 5.56,-9.5 15.8,-17.45 30.86,-23.79 14.18,-5.45 34.03,-10.24 59.33,-13.41 24.45,-3.17 55.31,-4.68 93.28,-4.68 38.71,0 70.35,1.52 94.9,4.68 25.3,3.17 44.27,7.96 58.45,13.41 14.29,6.33 23.79,14.29 30.12,23.79 6.33,8.73 9.5,19 9.5,30.01l0 2085.9zm42.65 -2788.85c0,90.22 -17.35,151.09 -51.38,183.47 -34.06,32.41 -96.45,48.98 -188.18,48.98 -90.19,0 -151.84,-15.8 -184.99,-47.33 -33.28,-31.63 -49.86,-91.74 -49.86,-180.31 0,-90.11 17.35,-151.09 51.38,-183.5 34.03,-32.38 96.42,-48.95 188.18,-48.95 90.19,0 151.84,15.8 184.99,47.44 33.28,31.63 49.86,91.74 49.86,180.2zm2733.85 2788.85c0,12.64 -3.17,22.91 -9.5,31.63 -6.33,7.85 -15.8,15.8 -29.98,22.14 -14.18,5.45 -33.18,10.24 -58.48,13.41 -24.56,3.17 -55.42,4.71 -92.51,4.71 -39.59,0 -71.22,-1.54 -95.78,-4.71 -25.2,-3.17 -44.17,-7.96 -58.45,-13.41 -14.18,-6.33 -23.68,-14.29 -30.01,-22.14 -6.33,-8.73 -9.47,-19 -9.47,-31.63l0 -1221.63c0,-118.58 -9.5,-215.11 -27.72,-287 -18.22,-72.77 -45.04,-135.26 -80.62,-188.18 -35.65,-52.25 -80.72,-92.51 -136.78,-120.21 -56.19,-27.7 -120.98,-41.88 -194.59,-41.88 -95.67,0 -190.47,33.92 -285.37,101.98 -95.67,67.95 -195.37,167.56 -299.66,298.89l0 1458.03c0,12.64 -3.17,22.91 -9.47,31.63 -6.33,7.85 -15.83,15.8 -30.12,22.14 -14.18,5.45 -33.15,10.24 -58.48,13.41 -24.53,3.17 -56.16,4.71 -94.9,4.71 -37.94,0 -68.83,-1.54 -93.25,-4.71 -25.3,-3.17 -45.15,-7.96 -59.33,-13.41 -15.06,-6.33 -25.33,-14.29 -30.89,-22.14 -5.45,-8.73 -7.85,-19 -7.85,-31.63l0 -2085.9c0,-12.66 2.39,-22.91 7.1,-31.63 4.79,-7.88 13.41,-15.83 27.7,-22.91 14.18,-7.1 31.63,-11.89 53.77,-14.18 21.28,-2.42 50.63,-3.17 86.18,-3.17 33.92,0 62.39,0.74 84.55,3.17 23.01,2.29 40.36,7.08 53,14.18 11.89,7.08 21.39,15.03 26.85,22.91 4.79,8.73 7.96,18.97 7.96,31.63l0 275.98c117.04,-131.99 233.23,-228.54 350.27,-289.42 116.29,-60.85 233.23,-91.74 351.92,-91.74 138.32,0 255.36,23.79 350.27,70.37 94.8,47.44 171.58,110.71 230.06,189.03 58.45,79.07 100.46,171.58 125.66,277.5 25.3,105.92 37.97,233.23 37.97,381.16l0 1273.01z"/>
   <path class="fil2" d="M49741.93 28968.69c0,18.09 -6.31,32.41 -18.09,41.88 -12.66,9.5 -29.35,15.83 -51.48,20.51 -21.28,4.79 -52.92,7.1 -94.8,7.1 -39.62,0 -72,-2.31 -95.67,-7.1 -23.79,-4.68 -41.13,-11.01 -52.25,-20.51 -11.01,-9.47 -16.58,-22.91 -16.58,-41.88l0 -208.8c-90.97,97.32 -192.09,173.12 -304.45,226.89 -112.25,53.03 -230.83,79.87 -355.83,79.87 -109.86,0 -209.44,-14.18 -298.04,-42.65 -88.57,-28.49 -164.48,-70.37 -227,-124.14 -62.39,-53.8 -111.48,-120.98 -146.28,-199.3 -34.67,-78.97 -52.12,-168.41 -52.12,-268.77 0,-117.81 23.76,-219.82 72,-305.99 47.44,-87.05 116.16,-158.92 206.38,-215.88 89.34,-56.94 199.17,-100.46 328.87,-128.93 129.7,-28.47 275.98,-42.65 438.09,-42.65l287.77 0 0 -162.85c0,-79.84 -8.73,-151.09 -25.33,-213.49 -17.35,-61.75 -44.27,-113.13 -82.24,-154.23 -37.97,-41.13 -86.95,-71.89 -147.05,-92.51 -60.1,-21.39 -134.39,-31.63 -222.21,-31.63 -94.02,0 -178.66,11.12 -252.94,34.03 -75.16,22.91 -140.85,47.46 -196.91,75.06 -56.16,27.7 -103.63,52.25 -141.6,75.16 -37.09,22.91 -65.56,34.03 -83.76,34.03 -12.66,0 -23.68,-3.17 -32.41,-9.5 -9.5,-5.56 -17.45,-15.06 -24.56,-27.7 -7.08,-11.89 -11.89,-27.72 -15.03,-46.69 -3.17,-19.74 -4.71,-40.25 -4.71,-64.04 0,-37.94 2.39,-68.72 7.85,-90.86 5.59,-22.14 19,-43.53 39.62,-63.27 20.51,-19.74 56.94,-43.53 107.54,-71.22 50.63,-26.85 109.86,-52.15 176.29,-75.06 65.66,-22.14 138.43,-41.13 217.4,-56.16 78.33,-14.95 158.17,-22.16 238.02,-22.16 149.44,0 276.75,16.58 381.9,50.63 105.17,34.03 189.81,84.63 254.62,150.19 64.89,65.66 111.48,147.16 140.72,244.35 29.35,97.3 44.27,211.2 44.27,340.79l0 1407.5zm-379.48 -955.26l-326.61 0c-104.27,0 -195.26,8.73 -272.71,26.95 -76.68,17.35 -140.82,44.3 -192.2,79.07 -50.6,34.8 -87.69,75.93 -112.25,124.91 -23.68,48.98 -35.57,105.15 -35.57,168.41 0,108.34 34.06,194.52 102.78,258.53 68.83,64.04 164.48,96.45 288.62,96.45 99.61,0 192.87,-25.2 278.27,-76.7 85.43,-50.6 175.52,-128.83 269.68,-233.97l0 -443.65zm2579.7 -997.77c0,33.92 -0.77,62.39 -2.39,85.4 -1.52,22.91 -4.68,41.13 -9.5,54.54 -3.91,13.41 -10.24,22.91 -17.35,29.98 -6.31,7.1 -15.8,10.27 -28.47,10.27 -12.64,0 -27.7,-3.17 -45.04,-10.27 -18.22,-7.08 -37.97,-14.18 -60.1,-20.49 -22.14,-7.1 -47.46,-13.44 -75.16,-19.77 -27.59,-6.31 -57.71,-9.47 -90.11,-9.47 -38.71,0 -76.68,7.85 -113.87,22.91 -36.32,15.8 -75.93,41.11 -116.16,77.45 -41.13,35.55 -83.89,83.01 -128.96,141.6 -44.27,59.22 -94.13,131.22 -147.8,216.62l0 1371.85c0,12.64 -3.17,22.91 -9.5,31.63 -6.33,7.85 -15.8,15.8 -30.09,22.14 -14.18,5.45 -33.18,10.24 -58.48,13.41 -24.56,3.17 -56.19,4.71 -94.9,4.71 -37.97,0 -68.83,-1.54 -93.28,-4.71 -25.3,-3.17 -45.15,-7.96 -59.33,-13.41 -15.06,-6.33 -25.3,-14.29 -30.86,-22.14 -5.45,-8.73 -7.85,-19 -7.85,-31.63l0 -2085.9c0,-12.66 2.39,-22.91 7.08,-31.63 4.79,-7.88 13.41,-15.83 27.7,-22.91 14.18,-7.1 31.63,-11.89 53.8,-14.18 21.26,-2.42 50.6,-3.17 86.18,-3.17 33.92,0 62.39,0.74 84.53,3.17 23.01,2.29 40.36,7.08 53.03,14.18 11.89,7.08 21.36,15.03 26.82,22.91 4.82,8.73 7.98,18.97 7.98,31.63l0 303.68c56.94,-83.89 110.71,-151.84 160.46,-204.86 50.6,-52.15 98.07,-94.02 142.34,-124.14 45.07,-29.98 89.34,-50.6 132.87,-62.39 44.3,-11.89 88.57,-17.45 133.64,-17.45 19.74,0 42.65,0.88 67.95,3.17 25.3,2.39 52.25,7.1 79.84,12.66 27.7,6.33 53.03,13.41 75.16,21.36 22.14,7.88 37.97,15.06 47.44,22.91 9.5,7.98 15.83,15.06 18.22,22.16 3.17,7.08 6.33,15.8 8.62,26.07 2.39,11.12 4.04,26.93 4.79,47.44 0.77,21.39 0.77,49.09 0.77,84.66zm2425.47 816.8c0,60 -14.93,102.78 -45.04,128.83 -29.98,25.33 -64.79,37.97 -103.52,37.97l-1369.53 0c0,116.19 11.89,220.56 34.8,313.07 22.91,93.39 61.73,173.23 116.27,239.67 53.8,66.43 124.14,116.93 210.32,152.61 86.95,35.55 192.97,53.77 317.89,53.77 98.81,0 187.38,-7.96 264.09,-24.53 77.45,-15.83 144.63,-34.06 200.82,-53.8 56.16,-19.74 102.75,-37.97 139.18,-53.77 36.34,-16.58 63.27,-24.56 82.16,-24.56 11.12,0 20.59,2.42 29.32,7.98 7.88,5.56 14.95,13.41 19,24.42 4.68,10.38 8.62,25.3 11.01,44.3 2.39,19.85 3.17,42.76 3.17,70.45 0,19.74 -0.77,37.09 -2.39,52.15 -1.54,14.18 -3.17,27.72 -5.45,38.74 -2.42,11.89 -6.33,22.14 -11.89,31.63 -5.56,8.73 -11.89,17.45 -20.62,26.07 -8.62,8.73 -33.92,22.14 -75.06,41.11 -41.88,19.74 -95.67,37.97 -162.11,56.94 -66.41,18.22 -143.11,34.8 -230.03,48.98 -87.05,15.06 -179.56,22.16 -278.4,22.16 -171.58,0 -321.03,-23.68 -449.85,-71.89 -128.93,-47.46 -237.24,-118.58 -324.96,-212.71 -87.8,-94.9 -154.23,-212.71 -198.53,-355.08 -45.04,-141.46 -67.18,-306.74 -67.18,-495.67 0,-178.79 22.91,-340.02 69.57,-483.14 45.82,-142.34 113.02,-264.09 200.08,-363.78 86.95,-99.61 192.87,-175.52 316.24,-229.32 123.37,-52.89 261.69,-79.84 414.28,-79.84 163.76,0 302.93,26.07 417.58,79.1 115.42,52.25 209.55,123.37 283.83,211.94 73.54,88.57 128.08,192.87 162.88,313.07 34.8,119.43 52.12,247.51 52.12,383.55l0 69.57zm-384.19 -113.1c4.71,-200.82 -39.59,-358.99 -133.61,-473.66 -94.13,-114.64 -232.46,-171.58 -416.7,-171.58 -94.9,0 -177.91,17.45 -249.16,53.03 -71.12,35.55 -130.45,83.01 -178.66,142.34 -48.24,58.48 -85.43,127.31 -111.51,204.76 -26.05,78.33 -41.11,159.69 -44.27,245.12l1133.91 0zm5513.74 1246.94c0,12.64 -3.14,22.91 -9.47,31.63 -6.33,7.85 -15.83,15.8 -30.12,22.14 -14.18,5.45 -33.15,10.24 -58.45,13.41 -24.56,3.17 -56.19,4.71 -94.9,4.71 -37.97,0 -68.86,-1.54 -93.28,-4.71 -25.3,-3.17 -45.15,-7.96 -59.33,-13.41 -15.06,-6.33 -25.33,-14.29 -30.89,-22.14 -5.45,-8.73 -7.85,-19 -7.85,-31.63l0 -3094.07c0,-12.53 2.39,-23.65 7.85,-32.38 5.56,-9.5 15.83,-17.35 30.89,-23.68 14.18,-5.56 34.03,-10.24 59.33,-13.41 24.42,-3.17 55.31,-4.82 93.28,-4.82 38.71,0 70.35,1.65 94.9,4.82 25.3,3.17 44.27,7.85 58.45,13.41 14.29,6.33 23.79,14.18 30.12,23.68 6.33,8.73 9.47,19.85 9.47,32.38l0 3094.07zm1367.59 0c0,12.64 -3.17,22.91 -9.5,31.63 -6.33,7.85 -15.8,15.8 -30.09,22.14 -14.18,5.45 -33.18,10.24 -58.48,13.41 -24.53,3.17 -56.16,4.71 -94.9,4.71 -37.97,0 -68.83,-1.54 -93.25,-4.71 -25.33,-3.17 -45.18,-7.96 -59.36,-13.41 -15.06,-6.33 -25.3,-14.29 -30.86,-22.14 -5.45,-8.73 -7.85,-19 -7.85,-31.63l0 -2085.9c0,-11.01 2.39,-21.28 7.85,-30.01 5.56,-9.5 15.8,-17.45 30.86,-23.79 14.18,-5.45 34.03,-10.24 59.36,-13.41 24.42,-3.17 55.29,-4.68 93.25,-4.68 38.74,0 70.37,1.52 94.9,4.68 25.3,3.17 44.3,7.96 58.48,13.41 14.29,6.33 23.76,14.29 30.09,23.79 6.33,8.73 9.5,19 9.5,30.01l0 2085.9zm42.65 -2788.85c0,90.22 -17.35,151.09 -51.38,183.47 -34.03,32.41 -96.42,48.98 -188.16,48.98 -90.22,0 -151.87,-15.8 -185.02,-47.33 -33.28,-31.63 -49.86,-91.74 -49.86,-180.31 0,-90.11 17.35,-151.09 51.38,-183.5 34.06,-32.38 96.45,-48.95 188.18,-48.95 90.19,0 151.84,15.8 184.99,47.44 33.28,31.63 49.86,91.74 49.86,180.2zm2733.85 2788.85c0,12.64 -3.17,22.91 -9.5,31.63 -6.31,7.85 -15.8,15.8 -29.98,22.14 -14.18,5.45 -33.18,10.24 -58.48,13.41 -24.53,3.17 -55.42,4.71 -92.51,4.71 -39.59,0 -71.22,-1.54 -95.75,-4.71 -25.2,-3.17 -44.19,-7.96 -58.48,-13.41 -14.18,-6.33 -23.68,-14.29 -29.98,-22.14 -6.33,-8.73 -9.5,-19 -9.5,-31.63l0 -1221.63c0,-118.58 -9.5,-215.11 -27.72,-287 -18.2,-72.77 -45.04,-135.26 -80.59,-188.18 -35.68,-52.25 -80.72,-92.51 -136.81,-120.21 -56.16,-27.7 -120.98,-41.88 -194.59,-41.88 -95.67,0 -190.47,33.92 -285.37,101.98 -95.65,67.95 -195.37,167.56 -299.63,298.89l0 1458.03c0,12.64 -3.17,22.91 -9.5,31.63 -6.33,7.85 -15.83,15.8 -30.12,22.14 -14.18,5.45 -33.15,10.24 -58.45,13.41 -24.56,3.17 -56.19,4.71 -94.9,4.71 -37.97,0 -68.83,-1.54 -93.28,-4.71 -25.3,-3.17 -45.15,-7.96 -59.33,-13.41 -15.06,-6.33 -25.3,-14.29 -30.89,-22.14 -5.45,-8.73 -7.85,-19 -7.85,-31.63l0 -2085.9c0,-12.66 2.39,-22.91 7.1,-31.63 4.79,-7.88 13.41,-15.83 27.7,-22.91 14.18,-7.1 31.63,-11.89 53.77,-14.18 21.28,-2.42 50.63,-3.17 86.18,-3.17 33.95,0 62.42,0.74 84.55,3.17 23.01,2.29 40.36,7.08 53.03,14.18 11.87,7.08 21.36,15.03 26.82,22.91 4.82,8.73 7.96,18.97 7.96,31.63l0 275.98c117.07,-131.99 233.23,-228.54 350.29,-289.42 116.27,-60.85 233.2,-91.74 351.89,-91.74 138.32,0 255.36,23.79 350.27,70.37 94.8,47.44 171.58,110.71 230.06,189.03 58.48,79.07 100.46,171.58 125.66,277.5 25.3,105.92 37.97,233.23 37.97,381.16l0 1273.01zm1362.14 0c0,12.64 -3.17,22.91 -9.5,31.63 -6.33,7.85 -15.83,15.8 -30.12,22.14 -14.18,5.45 -33.15,10.24 -58.45,13.41 -24.56,3.17 -56.19,4.71 -94.9,4.71 -37.97,0 -68.83,-1.54 -93.28,-4.71 -25.3,-3.17 -45.15,-7.96 -59.33,-13.41 -15.06,-6.33 -25.3,-14.29 -30.86,-22.14 -5.45,-8.73 -7.88,-19 -7.88,-31.63l0 -2085.9c0,-11.01 2.42,-21.28 7.88,-30.01 5.56,-9.5 15.8,-17.45 30.86,-23.79 14.18,-5.45 34.03,-10.24 59.33,-13.41 24.45,-3.17 55.31,-4.68 93.28,-4.68 38.71,0 70.35,1.52 94.9,4.68 25.3,3.17 44.27,7.96 58.45,13.41 14.29,6.33 23.79,14.29 30.12,23.79 6.33,8.73 9.5,19 9.5,30.01l0 2085.9zm42.65 -2788.85c0,90.22 -17.35,151.09 -51.38,183.47 -34.06,32.41 -96.45,48.98 -188.18,48.98 -90.22,0 -151.84,-15.8 -184.99,-47.33 -33.28,-31.63 -49.86,-91.74 -49.86,-180.31 0,-90.11 17.35,-151.09 51.38,-183.5 34.03,-32.38 96.42,-48.95 188.16,-48.95 90.22,0 151.87,15.8 185.02,47.44 33.28,31.63 49.86,91.74 49.86,180.2zm2439.75 2467.8c0,26.07 -0.77,48.98 -2.39,67.98 -1.54,19.85 -3.94,35.65 -7.85,49.09 -3.94,13.41 -8.73,24.42 -14.29,34.8 -5.45,10.24 -17.35,25.3 -37.09,44.27 -19,19.74 -52.25,43.42 -98.07,72.66 -46.69,28.47 -98.84,54.65 -156.55,76.78 -58.56,22.91 -120.98,41.03 -189.03,54.54 -67.95,14.18 -138.32,21.28 -211.09,21.28 -150.19,0 -283.06,-24.45 -398.48,-74.28 -116.27,-48.98 -213.46,-120.98 -291.04,-215.88 -78.19,-94.9 -137.55,-211.86 -178.66,-349.52 -41.13,-138.32 -61.65,-297.24 -61.65,-478.32 0,-204.76 25.3,-381.16 75.06,-528.95 50.6,-147.05 119.43,-268.03 206.38,-362.16 87.83,-94.13 190.58,-163.63 308.39,-209.55 118.56,-45.04 246.74,-67.95 384.29,-67.95 66.43,0 130.47,6.31 192.87,18.97 63.27,11.79 120.21,28.47 173.23,48.21 52.12,20.51 99.59,43.53 139.95,70.37 41.13,26.07 71.12,48.98 89.34,67.18 18.97,19 31.63,34.03 38.71,44.3 6.33,11.12 12.66,23.68 17.45,38.71 3.94,14.29 7.1,30.89 8.62,49.86 1.65,18.22 2.39,41.88 2.39,69.6 0,60.1 -7.08,101.98 -20.49,126.43 -14.31,23.79 -30.89,35.65 -51.51,35.65 -22.91,0 -49.73,-12.64 -79.84,-38.71 -29.98,-25.3 -67.95,-53.77 -114.64,-84.66 -46.59,-30.86 -102.75,-59.33 -168.41,-84.63 -65.56,-26.07 -143.11,-38.74 -232.46,-38.74 -184.25,0 -325.74,70.37 -423.8,211.97 -98.07,140.72 -147.05,345.45 -147.05,613.58 0,133.64 12.66,251.43 37.97,352.55 26.07,100.46 63.27,185.12 113.02,253.07 49.09,67.21 109.96,117.81 181.82,150.99 72,33.26 154.26,49.83 246.77,49.83 88.57,0 166.02,-14.18 232.46,-41.88 66.43,-27.72 123.37,-58.59 172.35,-92.51 49.09,-33.26 90.19,-63.27 123.37,-90.22 33.15,-27.59 58.45,-41 77.45,-41 10.35,0 19.85,3.17 27.7,9.47 7.96,6.33 14.29,16.6 19.74,30.78 5.56,15.03 9.5,33.26 11.89,56.16 2.39,22.14 3.17,48.98 3.17,79.84zm-52120.81 -43.53c0,24.56 -0.77,45.95 -2.29,64.92 -1.62,18.12 -4.04,33.92 -7.96,48.21 -3.94,13.41 -8.73,26.07 -15.06,37.19 -6.23,10.27 -17.35,23.68 -32.41,38.74 -15.8,15.8 -48.21,39.48 -97.19,71.12 -49.86,31.63 -111.48,62.5 -184.99,92.51 -73.64,30.09 -157.43,55.42 -252.33,75.91 -95.65,21.39 -199.17,31.63 -312.3,31.63 -194.49,0 -370.78,-32.38 -527.41,-97.3 -156.55,-64.79 -290.93,-160.46 -400.9,-287.77 -110.6,-126.54 -196.03,-283.06 -255.36,-468.82 -59.22,-186.64 -89.34,-400.9 -89.34,-643.7 0,-249.06 32.41,-470.5 96.45,-665.76 64.12,-194.49 154.23,-359.74 270.39,-495 116.29,-135.16 254.62,-237.94 416.7,-309.16 161.34,-71.12 340.79,-106.69 536.93,-106.69 86.92,0 171.58,7.88 253.05,23.68 82.16,16.58 158.07,36.42 227.67,60.87 69.6,24.53 131.22,53 185.89,85.4 53.66,31.63 91.63,58.59 112.22,79.1 21.39,20.49 34.8,36.32 41.13,47.44 6.33,10.27 11.01,22.91 14.95,37.97 4.04,15.06 7.18,32.41 9.5,52.15 2.39,20.62 3.14,44.27 3.14,72 0,31.63 -1.52,57.71 -4.68,79.07 -3.17,22.16 -7.96,40.25 -14.29,55.31 -5.45,14.29 -13.41,25.3 -22.03,32.41 -7.96,7.18 -19,10.35 -30.86,10.35 -22.16,0 -52.25,-15.06 -91.76,-45.15 -38.71,-30.01 -88.57,-63.16 -150.19,-99.61 -61.75,-36.32 -136.04,-69.57 -223.83,-99.59 -88.49,-30.09 -193.64,-45.04 -316.24,-45.04 -134.39,0 -256.13,26.82 -365.32,79.84 -109.86,53.77 -203.99,131.99 -281.44,235.62 -77.56,103.52 -138.43,230.06 -181.08,379.51 -42.76,149.44 -64.04,320.25 -64.04,511.6 0,190.58 20.51,358.99 61.65,505.27 41.11,146.28 100.46,268.77 177.14,366.84 76.68,98.07 171.58,172.35 283.09,222.98 112.22,49.83 238.76,75.16 380.25,75.16 119.46,0 224.61,-15.06 313.95,-44.3 89.34,-29.35 165.25,-61.75 227.77,-98.07 63.16,-36.42 114.64,-68.83 154.9,-98.07 41.11,-29.24 72.74,-44.27 95.65,-44.27 11.15,0 20.62,2.39 28.47,7.08 7.98,4.79 13.44,13.52 18.22,26.18 4.68,13.41 8.73,31.63 11.01,54.54 2.39,22.91 3.17,52.15 3.17,87.69zm21548.72 -418.99c0,139.97 -26.07,264.86 -77.45,374.72 -52.25,109.19 -124.14,202.44 -215.88,279.15 -91.74,75.91 -200.08,133.61 -324.22,172.35 -124.89,38.71 -258.53,57.71 -402.39,57.71 -100.46,0 -193.74,-8.62 -279.15,-25.33 -86.18,-17.32 -162.88,-38.71 -230.06,-63.14 -67.31,-24.56 -123.37,-50.63 -169.29,-76.81 -45.07,-26.82 -77.45,-48.98 -94.8,-67.95 -18.22,-18.22 -30.89,-41.9 -39.62,-70.37 -8.73,-28.47 -12.64,-66.43 -12.64,-113.87 0,-33.92 1.62,-62.39 4.79,-84.55 3.17,-22.14 7.85,-40.36 13.44,-53.77 6.31,-14.29 14.18,-23.79 23.65,-29.24 9.5,-5.56 19.85,-7.96 32.51,-7.96 21.28,0 52.15,13.41 91.63,39.48 38.84,26.18 89.34,54.65 151.84,85.43 61.65,30.09 136.04,59.33 223.73,86.18 87.05,26.93 188.29,40.36 302.06,40.36 87.05,0 166.13,-11.89 238.02,-34.8 72,-22.91 133.64,-55.31 185.02,-98.07 52.25,-41.9 91.74,-94.02 119.43,-155.78 27.72,-61.65 41.9,-131.99 41.9,-210.32 0,-84.53 -19,-157.29 -57.71,-217.4 -38.74,-60.1 -89.34,-113.13 -152.61,-158.94 -64.04,-45.04 -136.04,-86.92 -216.65,-124.89 -81.47,-37.97 -164.48,-75.93 -249.03,-115.52 -84.63,-39.48 -167.64,-83.01 -247.51,-131.22 -80.72,-47.46 -152.61,-103.52 -215.88,-168.44 -63.27,-64.79 -114.64,-140.72 -153.36,-228.52 -39.59,-86.95 -59.36,-191.35 -59.36,-313.07 0,-125.66 22.91,-237.27 67.98,-335.23 45.92,-97.3 109.19,-179.54 189.81,-245.97 81.47,-66.33 177.91,-116.93 289.39,-151.73 112.25,-34.8 232.46,-52.25 362.16,-52.25 66.43,0 132.87,5.56 200.05,17.45 67.21,11.79 130.47,26.85 189.7,46.59 59.36,18.97 112.36,41.11 158.94,64.89 45.92,23.68 76.68,43.42 90.97,57.71 15.06,15.06 24.56,26.07 29.24,34.8 4.82,8.73 7.96,19.74 11.12,32.41 3.17,13.41 5.45,29.21 7.1,48.21 1.52,18.22 2.39,41.88 2.39,72 0,27.7 -0.88,52.15 -3.17,74.28 -2.39,21.39 -6.33,39.59 -11.12,54.54 -3.94,14.29 -11.01,25.3 -18.97,32.51 -8.73,7.08 -18.22,10.24 -29.24,10.24 -17.45,0 -43.53,-11.12 -79.84,-32.41 -36.45,-22.14 -80.72,-45.92 -133.64,-73.62 -52.25,-26.85 -114.64,-51.38 -186.64,-73.51 -71.12,-22.91 -151.84,-33.95 -241.95,-33.95 -83.01,0 -155.78,11.04 -217.4,33.18 -61.75,22.91 -113.13,52.15 -153.38,89.34 -39.59,37.19 -69.57,80.72 -90.19,131.22 -19.74,51.48 -30.01,105.15 -30.01,162.11 0,83.01 19,155.01 57.71,215.11 38.74,60.1 90.11,112.99 154.13,159.69 64.92,46.69 137.69,88.57 219.82,127.31 81.47,38.71 165.25,77.56 250.68,117.04 84.63,39.48 168.41,82.27 249.91,129.7 82.24,46.59 154.9,102.75 219.79,166.79 64.04,64.04 115.42,139.2 155.01,226.89 39.48,87.05 59.25,189.81 59.25,309.24zm10494.37 418.99c0,24.56 -0.77,45.95 -2.29,64.92 -1.65,18.12 -4.04,33.92 -7.96,48.21 -3.94,13.41 -8.73,26.07 -15.06,37.19 -6.23,10.27 -17.35,23.68 -32.41,38.74 -15.8,15.8 -48.21,39.48 -97.19,71.12 -49.86,31.63 -111.48,62.5 -184.99,92.51 -73.64,30.09 -157.43,55.42 -252.33,75.91 -95.65,21.39 -199.17,31.63 -312.3,31.63 -194.49,0 -370.78,-32.38 -527.41,-97.3 -156.55,-64.79 -290.93,-160.46 -400.9,-287.77 -110.6,-126.54 -196.03,-283.06 -255.36,-468.82 -59.22,-186.64 -89.34,-400.9 -89.34,-643.7 0,-249.06 32.41,-470.5 96.42,-665.76 64.15,-194.49 154.26,-359.74 270.42,-495 116.29,-135.16 254.62,-237.94 416.7,-309.16 161.34,-71.12 340.79,-106.69 536.91,-106.69 86.95,0 171.61,7.88 253.07,23.68 82.16,16.58 158.07,36.42 227.67,60.87 69.6,24.53 131.22,53 185.87,85.4 53.69,31.63 91.63,58.59 112.25,79.1 21.39,20.49 34.8,36.32 41.13,47.44 6.33,10.27 11.01,22.91 14.95,37.97 4.02,15.06 7.18,32.41 9.47,52.15 2.42,20.62 3.17,44.27 3.17,72 0,31.63 -1.52,57.71 -4.68,79.07 -3.17,22.16 -7.96,40.25 -14.29,55.31 -5.45,14.29 -13.41,25.3 -22.03,32.41 -7.98,7.18 -19,10.35 -30.89,10.35 -22.14,0 -52.23,-15.06 -91.74,-45.15 -38.71,-30.01 -88.57,-63.16 -150.19,-99.61 -61.75,-36.32 -136.04,-69.57 -223.83,-99.59 -88.49,-30.09 -193.64,-45.04 -316.24,-45.04 -134.41,0 -256.13,26.82 -365.32,79.84 -109.86,53.77 -203.99,131.99 -281.44,235.62 -77.56,103.52 -138.43,230.06 -181.08,379.51 -42.76,149.44 -64.04,320.25 -64.04,511.6 0,190.58 20.51,358.99 61.65,505.27 41.11,146.28 100.46,268.77 177.14,366.84 76.68,98.07 171.58,172.35 283.06,222.98 112.25,49.83 238.79,75.16 380.28,75.16 119.46,0 224.61,-15.06 313.95,-44.3 89.34,-29.35 165.25,-61.75 227.77,-98.07 63.16,-36.42 114.64,-68.83 154.9,-98.07 41.11,-29.24 72.74,-44.27 95.65,-44.27 11.12,0 20.62,2.39 28.47,7.08 7.98,4.79 13.44,13.52 18.22,26.18 4.68,13.41 8.73,31.63 11.01,54.54 2.39,22.91 3.17,52.15 3.17,87.69zm10941.19 0c0,24.56 -0.74,45.95 -2.29,64.92 -1.62,18.12 -4.04,33.92 -7.96,48.21 -3.94,13.41 -8.73,26.07 -15.06,37.19 -6.23,10.27 -17.35,23.68 -32.41,38.74 -15.8,15.8 -48.21,39.48 -97.19,71.12 -49.83,31.63 -111.48,62.5 -184.99,92.51 -73.64,30.09 -157.43,55.42 -252.33,75.91 -95.65,21.39 -199.17,31.63 -312.3,31.63 -194.49,0 -370.78,-32.38 -527.41,-97.3 -156.55,-64.79 -290.93,-160.46 -400.9,-287.77 -110.6,-126.54 -196.03,-283.06 -255.36,-468.82 -59.22,-186.64 -89.34,-400.9 -89.34,-643.7 0,-249.06 32.41,-470.5 96.45,-665.76 64.12,-194.49 154.23,-359.74 270.39,-495 116.29,-135.16 254.62,-237.94 416.7,-309.16 161.34,-71.12 340.79,-106.69 536.93,-106.69 86.92,0 171.58,7.88 253.07,23.68 82.13,16.58 158.04,36.42 227.64,60.87 69.6,24.53 131.25,53 185.89,85.4 53.66,31.63 91.63,58.59 112.25,79.1 21.36,20.49 34.77,36.32 41.11,47.44 6.33,10.27 11.01,22.91 14.95,37.97 4.04,15.06 7.21,32.41 9.5,52.15 2.39,20.62 3.17,44.27 3.17,72 0,31.63 -1.54,57.71 -4.71,79.07 -3.17,22.16 -7.96,40.25 -14.29,55.31 -5.45,14.29 -13.41,25.3 -22.03,32.41 -7.96,7.18 -18.97,10.35 -30.86,10.35 -22.16,0 -52.25,-15.06 -91.74,-45.15 -38.74,-30.01 -88.6,-63.16 -150.22,-99.61 -61.75,-36.32 -136.04,-69.57 -223.83,-99.59 -88.46,-30.09 -193.64,-45.04 -316.24,-45.04 -134.39,0 -256.13,26.82 -365.32,79.84 -109.86,53.77 -203.99,131.99 -281.44,235.62 -77.56,103.52 -138.43,230.06 -181.08,379.51 -42.76,149.44 -64.04,320.25 -64.04,511.6 0,190.58 20.51,358.99 61.65,505.27 41.11,146.28 100.46,268.77 177.14,366.84 76.68,98.07 171.58,172.35 283.09,222.98 112.25,49.83 238.76,75.16 380.25,75.16 119.46,0 224.61,-15.06 313.95,-44.3 89.34,-29.35 165.25,-61.75 227.77,-98.07 63.16,-36.42 114.64,-68.83 154.9,-98.07 41.11,-29.24 72.74,-44.27 95.65,-44.27 11.15,0 20.62,2.39 28.49,7.08 7.96,4.79 13.41,13.52 18.2,26.18 4.71,13.41 8.73,31.63 11.01,54.54 2.42,22.91 3.17,52.15 3.17,87.69z"/>
  </g>
  <path class="fil1" d="M65129.3 0c1146.1,4506.95 5635.75,5650.6 4209.87,11027.9 1979.5,-2668.43 5506.02,-2083.87 8190.84,-3569.25 -728.36,1092.73 -658.89,2402.69 -1993.81,3242.77 -35.94,22.51 -89.95,28.65 -111.43,67.02 -18.94,33.92 7.29,76.52 9.34,112.46 32.22,564.47 -184.51,809.99 -706.76,663.9 167.86,512.27 6.28,783.49 -652.75,690.61 137.15,490 13.7,784.53 -572.03,732.19 -626.89,939.35 -1687.53,763.69 -3019.49,-109.38 528.9,771.36 1363.58,1256.89 1024.03,2180.11 -85.99,406.32 -351.97,507.77 -720.06,436.79 -400.71,-123.21 -914.5,170.01 -1113.19,-280.32 -1485.27,-326.77 -876.53,-1903.38 -929.63,-2977.16 -2753.38,1552.29 -5498.6,2699 -5262.29,869.35 -712.24,-259.46 -284.66,-761.38 -457.65,-1235.39 -1910.64,-2331.97 2199.02,-1416.04 3477.81,-778.01 -2462.61,-1397.23 -3600.75,-2565.84 -3248.92,-3477.67 -106.45,-413.88 -488.99,-897.1 0,-1189.71 -158.01,-411.83 -482.2,-864.74 182.94,-1235.52 -15.22,-334.67 -390.33,-1014.16 342.26,-1012.25 -31.1,-1553.59 1130.85,-2667.69 1350.91,-4158.44z"/>
  <path class="fil3" d="M65554.19 8930.56c-672.83,586.98 540.42,1245.87 1630.72,1899.9 -998.44,-836.22 -1708.76,-1531.19 -1095.81,-1575.33 62.04,-81.23 62.31,-165.91 6.15,-253.82 -408.9,-218.14 -533.9,-401.85 57.44,-381.26 302.83,-128.96 105.68,-390.73 -207.13,-405.45 -312.83,-14.71 -626.51,233.49 -391.37,715.96z"/>
  <path class="fil3" d="M69744.61 14460.13c254.22,-66.28 518.41,-87 798.09,-33.79 -51.96,-50.66 -53.88,-109.78 -33.92,-172.96 70.13,-13.44 130.9,-7.29 179.78,21.87 -89.05,-234.64 -53.11,-413.64 11.89,-579.82 189.99,300.01 266.11,621.65 219.42,966.46 -584.42,83.41 -951.37,-3.19 -1175.26,-201.75z"/>
  <path class="fil4" d="M269.89 29026.55l2339.34 0 0 -6023.13 90.01 0c0,0 989.71,1259.65 2789.17,1259.65 2609.29,0 4678.69,-2069.45 4678.69,-4768.64 0,-2699.27 -2069.4,-4768.72 -4678.69,-4768.72 -1979.42,0 -2879.18,1349.63 -2879.18,1349.63l-89.98 0c0,-359.84 -179.91,-1079.66 -179.91,-1079.66l-2339.34 0c0,0 269.89,719.87 269.89,2339.32l0 11691.56zm4678.69 -5933.18c-1259.63,0 -2339.34,-1439.59 -2339.34,-1439.59l0 -4318.79c0,0 899.76,-1439.59 2339.34,-1439.59 1529.6,0 2789.22,1259.68 2789.22,3599.02 0,2339.29 -1259.63,3598.94 -2789.22,3598.94zm10796.96 1169.7c1979.47,0 2879.23,-1349.63 2879.23,-1349.63l89.95 0c0,359.87 179.94,1079.69 179.94,1079.69l2339.34 0c0,0 -269.94,-719.82 -269.94,-2339.34l0 -6658.11 -2339.29 0 0 6658.11c0,0 -899.76,1439.59 -2339.34,1439.59 -1169.7,0 -1979.5,-809.77 -1979.5,-2159.36l0 -5938.34c0,0 -2339.32,0 -2339.32,0l0 5938.34c0,1889.47 1439.64,3329.05 3778.93,3329.05zm7557.86 -269.94l2339.34 0 0 -6658.13c0,0 1079.72,-1079.66 2339.34,-1079.66 719.82,0 1259.65,179.94 1259.65,179.94l449.88 -1439.59c0,0 -449.88,-269.97 -1169.7,-269.97 -1979.42,0 -2879.18,1349.63 -2879.18,1349.63l-89.98 0c0,-359.84 -179.91,-1079.66 -179.91,-1079.66l-2339.34 0c0,0 269.89,719.82 269.89,2339.32l0 6658.13zm7557.86 0l2339.34 0 0 -6658.13c0,0 899.76,-1439.59 2339.34,-1439.59 1169.7,0 1979.47,809.8 1979.47,2159.38l0 5938.34c0,0 2339.29,0 2339.29,0l0 -5938.34c0,-1889.47 -1439.59,-3329.08 -3778.93,-3329.08 -1979.42,0 -2879.18,1349.63 -2879.18,1349.63l-89.95 0c0,-359.84 -179.94,-1079.66 -179.94,-1079.66l-2339.34 0c0,0 269.89,719.82 269.89,2339.32l0 6658.13zm14306 269.94c1979.42,0 2879.18,-1349.63 2879.18,-1349.63l89.95 0c0,359.87 179.94,1079.69 179.94,1079.69l2339.34 0c0,0 -269.89,-719.82 -269.89,-2339.34l0 -3239.1c0,-2069.4 -1619.58,-3688.98 -4318.76,-3688.98 -2519.33,0 -3688.98,1799.51 -3688.98,1799.51l719.77 629.87c0,0 989.71,-1259.68 2609.29,-1259.68 1439.59,0 2339.34,899.76 2339.34,2519.28l0 449.88c0,0 -1259.65,-719.77 -2879.18,-719.77 -2339.34,0 -3688.98,1349.63 -3688.98,3149.07 0,1619.58 1349.63,2969.21 3688.98,2969.21zm539.83 -1169.7c-989.71,0 -1799.51,-809.77 -1799.51,-1799.51 0,-1169.65 809.8,-1979.42 1799.51,-1979.42 1439.59,0 2339.34,629.81 2339.34,629.81l0 1709.53c0,0 -899.76,1439.59 -2339.34,1439.59zm7017.98 899.76l2339.34 0 0 -6658.13c0,0 899.76,-1439.59 2159.41,-1439.59 989.71,0 1709.53,719.77 1709.53,2159.38l0 5938.34 2339.34 0c0,-6298.21 0,-6658.13 0,-6658.13 0,0 899.7,-1439.59 2159.38,-1439.59 989.71,0 1709.53,719.77 1709.53,2159.38l0 5938.34 2339.34 0 0 -5938.34c0,-1979.45 -1349.63,-3329.08 -3509.04,-3329.08 -1799.51,0 -2969.16,1529.62 -2969.16,1529.62l-89.95 0c0,0 -899.76,-1529.62 -3149.14,-1529.62 -1799.48,0 -2699.24,1349.63 -2699.24,1349.63l-89.95 0c0,-359.84 -179.94,-1079.66 -179.94,-1079.66l-2339.34 0c0,0 269.89,719.82 269.89,2339.32l0 6658.13z"/>
 </g>
</svg>
